<svg xmlns="http://www.w3.org/2000/svg" version="1.1" xmlns:xlink="http://www.w3.org/1999/xlink" xmlns:svgjs="http://svgjs.dev/svgjs" width="128" height="128" viewBox="0 0 128 128"><g transform="matrix(0.8046875,0,0,0.8046875,12.251863636363638,12.251863636363638)"><svg viewBox="0 0 143 143" data-background-color="#000000" preserveAspectRatio="xMidYMid meet" height="128" width="128" xmlns="http://www.w3.org/2000/svg" xmlns:xlink="http://www.w3.org/1999/xlink"><g id="tight-bounds" transform="matrix(1,0,0,1,0.3444999999999965,0.3444999999999965)"><svg viewBox="0 0 142.31066447748242 142.31066447748242" height="142.31066447748242" width="142.31066447748242"><g><svg></svg></g><g><svg viewBox="0 0 142.31066447748242 142.31066447748242" height="142.31066447748242" width="142.31066447748242"><g><path d="M0 71.155c0-39.298 31.857-71.155 71.155-71.155 39.298 0 71.155 31.857 71.156 71.155 0 39.298-31.857 71.155-71.156 71.156-39.298 0-71.155-31.857-71.155-71.156zM71.155 134.886c35.197 0 63.731-28.533 63.731-63.731 0-35.197-28.533-63.731-63.731-63.73-35.197 0-63.731 28.533-63.73 63.73 0 35.197 28.533 63.731 63.73 63.731z" data-fill-palette-color="tertiary" fill="#000000" stroke="transparent"></path><ellipse rx="68.30911894919156" ry="68.30911894919156" cx="71.15533223874121" cy="71.15533223874121" fill="#000000" stroke="transparent" stroke-width="0" fill-opacity="1" data-fill-palette-color="tertiary"></ellipse></g><g transform="matrix(1,0,0,1,38.88101265253735,29.989108276746492)"><svg viewBox="0 0 64.54863917240772 82.33244792398943" height="82.33244792398943" width="64.54863917240772"><g><svg viewBox="0 0 64.54863917240772 82.33244792398943" height="82.33244792398943" width="64.54863917240772"><g><svg viewBox="0 0 64.54863917240772 82.33244792398943" height="82.33244792398943" width="64.54863917240772"><g id="textblocktransform"><svg viewBox="0 0 64.54863917240772 82.33244792398943" height="82.33244792398943" width="64.54863917240772" id="textblock"><g><svg viewBox="0 0 64.54863917240772 82.33244792398943" height="82.33244792398943" width="64.54863917240772"><g transform="matrix(1,0,0,1,0,0)"><svg width="64.54863917240772" viewBox="0.25 -31.25 24.5 31.25" height="82.33244792398943" data-palette-color="#000000"><path d="M24.75-31.25L24.75-23.25 17.5-23.25 17.5 0 7.5 0 7.5-23.25 0.25-23.25 0.25-31.25 24.75-31.25Z" opacity="1" transform="matrix(1,0,0,1,0,0)" fill="#ffffff" class="wordmark-text-0" data-fill-palette-color="quaternary" id="text-0"></path></svg></g></svg></g></svg></g></svg></g><g></g></svg></g></svg></g></svg></g><defs></defs></svg><rect width="142.31066447748242" height="142.31066447748242" fill="none" stroke="none" visibility="hidden"></rect></g></svg></g></svg>